<svg id="Layer_3" enable-background="new 0 0 64 64" height="512" viewBox="0 0 64 64" width="512" xmlns="http://www.w3.org/2000/svg"><g><circle cx="60" cy="9" r="2"/><circle cx="60" cy="19" r="2"/><circle cx="60" cy="29" r="2"/><circle cx="60" cy="39" r="2"/><circle cx="60" cy="49" r="2"/><circle cx="60" cy="59" r="2"/><path d="m35.121 15.293c-.723.723-1.121 1.685-1.121 2.707s.398 1.984 1.121 2.707l1.172 1.172c1.101 1.1 1.707 2.564 1.707 4.121s-.606 3.021-1.707 4.121l-1.172 1.172c-.723.723-1.121 1.685-1.121 2.707s.398 1.984 1.121 2.707l1.172 1.172c1.101 1.1 1.707 2.564 1.707 4.121s-.606 3.021-1.707 4.121l-1.172 1.172c-.723.723-1.121 1.685-1.121 2.707s.398 1.984 1.121 2.707l2.293 2.293h4.172l-.879-.879c-1.101-1.1-1.707-2.564-1.707-4.121s.606-3.021 1.707-4.121l1.172-1.172c.723-.723 1.121-1.685 1.121-2.707s-.398-1.984-1.121-2.707l-1.172-1.172c-1.101-1.1-1.707-2.564-1.707-4.121s.606-3.021 1.707-4.121l1.172-1.172c.723-.723 1.121-1.685 1.121-2.707s-.398-1.984-1.121-2.707l-1.172-1.172c-1.101-1.1-1.707-2.564-1.707-4.121s.606-3.021 1.707-4.121l.879-.879h-4.172z"/><path d="m42.121 47.293c-.723.723-1.121 1.685-1.121 2.707s.398 1.984 1.121 2.707l2.293 2.293h2.586v-42h-2.586l-2.293 2.293c-.723.723-1.121 1.685-1.121 2.707s.398 1.984 1.121 2.707l1.172 1.172c1.101 1.1 1.707 2.564 1.707 4.121s-.606 3.021-1.707 4.121l-1.172 1.172c-.723.723-1.121 1.685-1.121 2.707s.398 1.984 1.121 2.707l1.172 1.172c1.101 1.1 1.707 2.564 1.707 4.121s-.606 3.021-1.707 4.121z"/><path d="m21.121 15.293c-.723.723-1.121 1.685-1.121 2.707s.398 1.984 1.121 2.707l1.172 1.172c1.101 1.1 1.707 2.564 1.707 4.121s-.606 3.021-1.707 4.121l-1.172 1.172c-.723.723-1.121 1.685-1.121 2.707s.398 1.984 1.121 2.707l1.172 1.172c1.101 1.1 1.707 2.564 1.707 4.121s-.606 3.021-1.707 4.121l-1.172 1.172c-.723.723-1.121 1.685-1.121 2.707s.398 1.984 1.121 2.707l2.293 2.293h4.172l-.879-.879c-1.101-1.1-1.707-2.564-1.707-4.121s.606-3.021 1.707-4.121l1.172-1.172c.723-.723 1.121-1.685 1.121-2.707s-.398-1.984-1.121-2.707l-1.172-1.172c-1.101-1.1-1.707-2.564-1.707-4.121s.606-3.021 1.707-4.121l1.172-1.172c.723-.723 1.121-1.685 1.121-2.707s-.398-1.984-1.121-2.707l-1.172-1.172c-1.101-1.1-1.707-2.564-1.707-4.121s.606-3.021 1.707-4.121l.879-.879h-4.172z"/><path d="m28.121 15.293c-.723.723-1.121 1.685-1.121 2.707s.398 1.984 1.121 2.707l1.172 1.172c1.101 1.1 1.707 2.564 1.707 4.121s-.606 3.021-1.707 4.121l-1.172 1.172c-.723.723-1.121 1.685-1.121 2.707s.398 1.984 1.121 2.707l1.172 1.172c1.101 1.1 1.707 2.564 1.707 4.121s-.606 3.021-1.707 4.121l-1.172 1.172c-.723.723-1.121 1.685-1.121 2.707s.398 1.984 1.121 2.707l2.293 2.293h4.172l-.879-.879c-1.101-1.1-1.707-2.564-1.707-4.121s.606-3.021 1.707-4.121l1.172-1.172c.723-.723 1.121-1.685 1.121-2.707s-.398-1.984-1.121-2.707l-1.172-1.172c-1.101-1.1-1.707-2.564-1.707-4.121s.606-3.021 1.707-4.121l1.172-1.172c.723-.723 1.121-1.685 1.121-2.707s-.398-1.984-1.121-2.707l-1.172-1.172c-1.101-1.1-1.707-2.564-1.707-4.121s.606-3.021 1.707-4.121l.879-.879h-4.172z"/><path d="m10 47c-3.86 0-7 3.14-7 7s3.14 7 7 7 7-3.14 7-7-3.14-7-7-7zm0 12c-2.757 0-5-2.243-5-5s2.243-5 5-5 5 2.243 5 5-2.243 5-5 5z"/><path d="m19 10v1h29c.552 0 1 .448 1 1v44c0 .552-.448 1-1 1h-29.525c-.562 1.583-1.548 2.964-2.831 4h37.356v-54h-34.525c.334.94.525 1.947.525 3z"/><path d="m10 45c2.826 0 5.349 1.312 7 3.356v-38.356c0-3.86-3.14-7-7-7s-7 3.14-7 7v38.356c1.651-2.044 4.174-3.356 7-3.356z"/><circle cx="10" cy="54" r="3"/><path d="m19 14.736c.206-.304.442-.592.707-.857l.879-.879h-1.586z"/><path d="m19 30.736c.206-.304.442-.592.707-.857l1.172-1.172c.723-.723 1.121-1.685 1.121-2.707s-.398-1.984-1.121-2.707l-1.172-1.172c-.266-.266-.501-.553-.707-.857z"/><path d="m19 54c0 .338-.022.671-.059 1h1.645l-.879-.879c-.266-.266-.501-.553-.707-.857z"/><path d="m19 46.736c.206-.304.442-.592.707-.857l1.172-1.172c.723-.723 1.121-1.685 1.121-2.707s-.398-1.984-1.121-2.707l-1.172-1.172c-.266-.266-.501-.553-.707-.857z"/><path d="m57.184 8h-3.184v2h3.184c-.112-.314-.184-.648-.184-1s.072-.686.184-1z"/><path d="m57.184 18h-3.184v2h3.184c-.112-.314-.184-.648-.184-1s.072-.686.184-1z"/><path d="m57.184 28h-3.184v2h3.184c-.112-.314-.184-.648-.184-1s.072-.686.184-1z"/><path d="m57.184 38h-3.184v2h3.184c-.112-.314-.184-.648-.184-1s.072-.686.184-1z"/><path d="m57.184 48h-3.184v2h3.184c-.112-.314-.184-.648-.184-1s.072-.686.184-1z"/><path d="m57.184 58h-3.184v2h3.184c-.112-.314-.184-.648-.184-1s.072-.686.184-1z"/></g></svg>