<?xml version="1.0" encoding="iso-8859-1"?>
<!-- Generator: Adobe Illustrator 19.0.0, SVG Export Plug-In . SVG Version: 6.00 Build 0)  -->
<svg version="1.1" id="Capa_1" xmlns="http://www.w3.org/2000/svg" xmlns:xlink="http://www.w3.org/1999/xlink" x="0px" y="0px"
	 viewBox="0 0 420.049 420.049" style="enable-background:new 0 0 420.049 420.049;" xml:space="preserve">
<g>
	<g>
		<g>
			<path d="M392.871,327.624c-0.001-0.016-0.002-0.032-0.002-0.049V43.363c0.579-22.787-17.424-41.73-40.212-42.309
				c-0.528-0.013-1.056-0.017-1.584-0.01h-256c6.999,9.129,10.684,20.368,10.449,31.869v294.661
				c0.838,13.438,12.139,23.817,25.6,23.51h107.102v-44.931c-14.701-14.683-22.969-34.602-22.988-55.38
				c-0.393-44.145,35.075-80.25,79.22-80.643c44.145-0.393,80.25,35.075,80.643,79.22c0.189,21.235-8.08,41.673-22.981,56.803
				v44.931h19.331C383.843,350.523,393.434,340.019,392.871,327.624z M156.722,63.739h91.429c4.328,0,7.837,3.509,7.837,7.837
				s-3.509,7.837-7.837,7.837h-91.429c-4.328,0-7.837-3.509-7.837-7.837S152.394,63.739,156.722,63.739z M342.191,131.657H156.722
				c-4.328,0-7.837-3.509-7.837-7.837c0-4.328,3.509-7.837,7.837-7.837h185.469c4.328,0,7.837,3.509,7.837,7.837
				C350.028,128.149,346.519,131.657,342.191,131.657z"/>
			<path d="M64.248,1.045h-5.747V0C41.055,1.091,27.393,15.436,27.154,32.914v167.184c0,13.061,9.404,25.6,21.943,25.6h40.751
				V32.914C89.848,16.718,79.922,6.269,64.248,1.045z"/>
			<circle cx="295.171" cy="250.253" r="64.261"/>
			<path d="M253.375,318.171l1.045,101.878l35.527-26.645c3-2.022,6.927-2.022,9.927,0l35.526,26.645V318.694
				c-12.283,7.473-26.374,11.448-40.751,11.494C280.01,330.312,265.658,326.134,253.375,318.171z"/>
		</g>
	</g>
</g>
<g>
</g>
<g>
</g>
<g>
</g>
<g>
</g>
<g>
</g>
<g>
</g>
<g>
</g>
<g>
</g>
<g>
</g>
<g>
</g>
<g>
</g>
<g>
</g>
<g>
</g>
<g>
</g>
<g>
</g>
</svg>
