<?xml version="1.0" encoding="utf-8"?>
<!-- Generator: Adobe Illustrator 23.0.3, SVG Export Plug-In . SVG Version: 6.00 Build 0)  -->
<svg version="1.1" id="Layer_1" xmlns="http://www.w3.org/2000/svg" xmlns:xlink="http://www.w3.org/1999/xlink" x="0px" y="0px"
	 viewBox="0 0 512 512" style="enable-background:new 0 0 512 512;" xml:space="preserve">
<style type="text/css">
	.st0{fill:#FFFFFF;stroke:#000000;stroke-miterlimit:10;}
</style>
<circle class="st0" cx="261.5" cy="262.5" r="121.5"/>
<path d="M480,224c-11.8,0-22.2,6.4-27.7,16h-29.1c-3.3-34.3-16.9-65.7-37.7-90.9l20.6-20.6c10.6,2.9,22.5,0.1,30.9-8.3
	c12.5-12.5,12.5-32.8,0-45.3s-32.8-12.5-45.3,0c-8.3,8.4-11.1,20.2-8.3,30.9l-20.6,20.6C337.7,105.6,306.3,92,272,88.8V59.7
	c9.6-5.5,16-15.9,16-27.7c0-17.6-14.4-32-32-32s-32,14.4-32,32c0,11.8,6.4,22.2,16,27.7v29.1c-34.3,3.3-65.7,16.9-90.9,37.7
	l-20.6-20.6c2.8-10.7,0.1-22.5-8.3-30.9C107.8,62.5,87.5,62.5,75,75s-12.5,32.8,0,45.3c8.4,8.4,20.3,11.1,30.9,8.3l20.6,20.6
	C105.6,174.3,92,205.7,88.8,240H59.7c-5.5-9.6-15.9-16-27.7-16c-17.6,0-32,14.4-32,32s14.4,32,32,32c11.8,0,22.2-6.4,27.7-16h29.1
	c3.3,34.3,16.9,65.7,37.7,90.9l-20.6,20.6c-10.7-2.8-22.5-0.1-30.9,8.3c-12.5,12.5-12.5,32.8,0,45.3c12.5,12.5,32.8,12.5,45.3,0
	c8.3-8.4,11.1-20.2,8.3-30.9l20.6-20.6c25.2,20.8,56.5,34.5,90.9,37.7v29.1c-9.6,5.5-16,15.9-16,27.7c0,17.6,14.4,32,32,32
	s32-14.4,32-32c0-11.8-6.4-22.2-16-27.7v-29.1c34.3-3.3,65.7-16.9,90.9-37.7l20.6,20.6c-2.8,10.7-0.1,22.5,8.3,30.9
	c12.5,12.5,32.8,12.5,45.3,0c12.5-12.5,12.5-32.8,0-45.3c-8.4-8.3-20.2-11.1-30.9-8.3l-20.6-20.6c20.8-25.2,34.5-56.5,37.7-90.9
	h29.1c5.5,9.6,15.9,16,27.7,16c17.6,0,32-14.4,32-32S497.6,224,480,224L480,224z M203,248c-15.4,0-28-12.6-28-28s12.6-28,28-28
	s28,12.6,28,28S218.4,248,203,248z M272,344c-17.6,0-32-14.4-32-32s14.4-32,32-32s32,14.4,32,32S289.6,344,272,344z M328,232
	c-13.2,0-24-10.8-24-24s10.8-24,24-24s24,10.8,24,24S341.2,232,328,232z"/>
</svg>
