<svg height="512" viewBox="0 0 64 64" width="512" xmlns="http://www.w3.org/2000/svg"><g id="Glyph"><path d="m14 30h18v-4h-2v2h-2v-2h-2v2h-2v-2h-2v2h-2v-2h-2v2h-2v-2h-2z"/><path d="m40 13h6v2h-6z"/><path d="m44 40v-14h-10v14h2v-5h2v5h2v-9h2v9z"/><path d="m47.74 58h-29.479a3.11 3.11 0 0 0 2.739 2h24a3.112 3.112 0 0 0 2.74-2z"/><path d="m46.198 17h-6.396l-1.555 7h9.506z"/><path d="m49.92 32h-3.92v9a1 1 0 0 1 -1 1h-12a1 1 0 0 1 -1-1v-9h-15.92l1.846 24h30.148zm-25.92 22h-3a1 1 0 0 1 -.992-.876l-1-8 1.984-.248.891 7.124h2.117zm4 0h-2v-2h2zm4 0h-2v-2h2z"/><path d="m36.169 8h2.831a1 1 0 0 1 1 1v2h6.586l2.707-2.707a1 1 0 0 1 .707-.293h2v-4h-9c-3.126 0-6.1 1.834-6.831 4z"/><path d="m52 26h-2v2h-2v-2h-2v4h6z"/><path d="m54 7.719 2-.5v-2.438l-2-.5z"/><path d="m32.836 13.691a2.862 2.862 0 0 0 -2.135-2.76v-.085a2.846 2.846 0 1 0 -5.691 0v.071a3.556 3.556 0 1 0 3.735 5.328 2.751 2.751 0 0 0 1.245.292 2.85 2.85 0 0 0 2.846-2.846z"/><circle cx="16" cy="19" r="2"/><circle cx="10" cy="11" r="4"/><circle cx="18" cy="5" r="2"/><path d="m54 12v-3h-2v3a2 2 0 0 1 -2 2v2a4 4 0 0 0 4-4z"/></g></svg>