<?xml version="1.0"?>
<svg xmlns="http://www.w3.org/2000/svg" viewBox="0 0 64 64" width="512" height="512"><g id="Free_delivery" data-name="Free delivery"><path d="M6,55v1a1,1,0,0,0,1,1h4.09a5.6,5.6,0,0,1,0-2Z"/><circle cx="17" cy="56" r="4"/><path d="M20,31a1,1,0,0,0-1-1H18v2h1A1,1,0,0,0,20,31Z"/><path d="M22.91,55a5.6,5.6,0,0,1,0,2H45.09a5.6,5.6,0,0,1,0-2Z"/><circle cx="51" cy="56" r="4"/><path d="M56.188,53H58V46H49a3,3,0,0,1-3-3V35H44V53h1.812a5.986,5.986,0,0,1,10.376,0Z"/><path d="M22.188,53H42V49H4v4h7.812a5.986,5.986,0,0,1,10.376,0Z"/><path d="M49,44h9V42a7.008,7.008,0,0,0-7-7H48v8A1,1,0,0,0,49,44Z"/><path d="M42,34V23H4V47H42ZM31,29a1,1,0,0,1,1-1h4a1,1,0,0,1,0,2H33v2h2a1,1,0,0,1,0,2H33v2h3a1,1,0,0,1,0,2H32a1,1,0,0,1-1-1Zm-7,0a1,1,0,0,1,1-1h4a1,1,0,0,1,0,2H26v2h2a1,1,0,0,1,0,2H26v2h3a1,1,0,0,1,0,2H25a1,1,0,0,1-1-1Zm-8,0a1,1,0,0,1,1-1h2a2.992,2.992,0,0,1,.888,5.851L21.8,36.4a1,1,0,1,1-1.6,1.2L18,34.667V37a1,1,0,0,1-2,0ZM9,29a1,1,0,0,1,1-1h4a1,1,0,0,1,0,2H11v2h2a1,1,0,0,1,0,2H11v3a1,1,0,0,1-2,0ZM39,42H7a1,1,0,0,1,0-2H39a1,1,0,0,1,0,2Z"/><path d="M59,57a1,1,0,0,0,1-1V55H56.91a5.6,5.6,0,0,1,0,2Z"/></g></svg>
