<svg height="512" viewBox="0 0 512 512" width="512" xmlns="http://www.w3.org/2000/svg"><g id="Solid"><g><path d="m152 280h120v56h-120z"/><path d="m231.781 108.191-20.892 47.006 10.594 3.532 38.132-43.58z"/><path d="m314.214 104-22.857-40h-53.941l-10.584 26.462 54.153 13.538z"/><path d="m363.6875 352.8906-42.0729 63.1094h156.7708l-42.0729-63.1094a1.9971 1.9971 0 0 0 -1.6646-.8906h-69.2958a1.9971 1.9971 0 0 0 -1.6646.8906zm52.3125 23.1094h16v16h-16zm-48 0h16v16h-16z"/><path d="m220.184 64h-20.184v16l15.139 2.379z"/><path d="m56 206v66h16v-46a18.0206 18.0206 0 0 1 18-18h60a18.0206 18.0206 0 0 1 18 18v38h16v-58a22.0248 22.0248 0 0 0 -22-22h-84a22.0248 22.0248 0 0 0 -22 22z"/><path d="m152 352h120v16h-120z"/><path d="m232 226.5215v37.4785h48a8 8 0 0 1 8 8h56v-46.8262l-21.9521-73.1738h-37.8829z"/><path d="m288 288h88v16h-88z"/><path d="m144 130a10 10 0 0 0 -10-10h-28a10 10 0 0 0 -10 10v38h48z"/><path d="m408 34a2.0023 2.0023 0 0 0 -2-2h-12a2.0023 2.0023 0 0 0 -2 2v302h16z"/><path d="m152 226a2.0023 2.0023 0 0 0 -2-2h-60a2.0023 2.0023 0 0 0 -2 2v46h48a8 8 0 0 1 8-8h8z"/><path d="m152 384h120v24h-120z"/><path d="m288 120h32v16h-32z"/><path d="m44 304h92v-16h-104v4a12.0134 12.0134 0 0 0 12 12z"/><path d="m72 400a40 40 0 1 0 40 40 40.0455 40.0455 0 0 0 -40-40zm0 64a24 24 0 1 1 24-24 24.0272 24.0272 0 0 1 -24 24z"/><path d="m365.3521 336h10.6479v-16h-88v96a8 8 0 0 1 -8 8h-136a8 8 0 0 1 -8-8v-96h-72v64.57a55.9793 55.9793 0 0 1 47.1542 95.43h192.8458v-64a7.9982 7.9982 0 0 1 1.3438-4.4375l45.0312-67.5469a17.9638 17.9638 0 0 1 14.9771-8.0156z"/><circle cx="72" cy="440" r="8"/><path d="m320 480h32v-32h16v32h24v-32h16v32h24v-32h16v32h32v-48h-160z"/><path d="m448 128h16v16h-16z"/><path d="m448 160h16v16h-16z"/><path d="m432 144h16v16h-16z"/><path d="m464 144h16v16h-16z"/><path d="m56 40h16v16h-16z"/><path d="m56 72h16v16h-16z"/><path d="m40 56h16v16h-16z"/><path d="m72 56h16v16h-16z"/></g></g></svg>