<?xml version="1.0" encoding="iso-8859-1"?>
<!-- Generator: Adobe Illustrator 18.0.0, SVG Export Plug-In . SVG Version: 6.00 Build 0)  -->
<!DOCTYPE svg PUBLIC "-//W3C//DTD SVG 1.1//EN" "http://www.w3.org/Graphics/SVG/1.1/DTD/svg11.dtd">
<svg version="1.1" id="Capa_1" xmlns="http://www.w3.org/2000/svg" xmlns:xlink="http://www.w3.org/1999/xlink" x="0px" y="0px"
	 viewBox="0 0 480.04 480.04" style="enable-background:new 0 0 480.04 480.04;" xml:space="preserve">
<g>
	<path d="M479.461,134.679c-0.888-2.355-2.72-4.23-5.054-5.171l-39.208-15.817c-2.436-12.666-12.055-22.811-24.436-26.009
		l-2.116-24.362c-0.31-3.566-2.702-6.608-6.093-7.751c-3.392-1.143-7.137-0.168-9.54,2.484L382.951,69.15l-6.218-21.765
		c-1.072-3.753-4.441-6.387-8.341-6.521c-3.895-0.145-7.444,2.258-8.774,5.927l-46.47,128.195l-171.982,8.029
		c-0.072,0.003-0.145,0.006-0.216,0.011c-35.3,2.128-68.734-16.765-85.166-48.119c-2.308-4.403-7.747-6.101-12.149-3.794
		c-4.402,2.308-6.101,7.747-3.794,12.149c14.158,27.015,38.838,46.306,67.315,54.096c-12.422,9.871-27.955,28.628-33.656,62.674
		l-40.601,12.76c-2.372,0.745-4.329,2.439-5.409,4.677L0.894,332.625c-1.885,3.91-0.711,8.609,2.793,11.173l9.131,6.68
		c1.557,1.14,3.422,1.736,5.314,1.736c0.725,0,1.455-0.088,2.172-0.267c2.59-0.644,4.76-2.404,5.925-4.806l18.855-38.878
		l86.067,2.308c3.513,7.661,8.067,15.532,13.93,23.488l-10.459,42.639c-0.592,2.414-0.16,4.966,1.195,7.05l33.373,51.338
		c1.703,2.62,4.577,4.096,7.549,4.096c1.157,0,2.329-0.224,3.452-0.69l10.445-4.343c2.465-1.025,4.347-3.091,5.14-5.64
		c0.792-2.549,0.412-5.317-1.038-7.559l-23.465-36.279l49.397-76.824c0.152-0.237-0.13,0.25,0,0
		c4.218-8.14,6.454-16.094,7.294-23.67c33.445,5.831,109.619,19.272,109.619,19.272l-3.522,124.773
		c-0.125,4.429,2.993,8.29,7.349,9.102l9.148,1.704c0.547,0.103,1.099,0.152,1.648,0.152c1.81,0,3.593-0.547,5.105-1.588
		c1.97-1.357,3.319-3.443,3.749-5.797l21.736-119.146l40.153,8.172l-0.904,12.99c-0.229,3.305,1.374,6.468,4.175,8.236l5.52,3.483
		c1.454,0.917,3.122,1.389,4.804,1.389c0.921,0,1.846-0.142,2.743-0.429c2.534-0.811,4.579-2.701,5.587-5.163l12.899-31.528
		c0.945-2.311,0.888-4.91-0.157-7.177c-1.045-2.267-2.985-3.998-5.355-4.779l-62.819-21.611l17.28-94.722
		c3.102,0.424,6.227,0.657,9.372,0.657c26.356-0.001,50.492-15.431,62.988-40.27C480.211,139.651,480.349,137.033,479.461,134.679z"
		/>
	<path d="M123.542,318.415c-2.799-1.773-6.506-0.939-8.279,1.86l-4.279,6.76c-1.772,2.8-0.939,6.507,1.861,8.278
		c0.996,0.631,2.106,0.932,3.203,0.932c1.988,0,3.934-0.988,5.076-2.792l4.279-6.76
		C127.175,323.894,126.342,320.187,123.542,318.415z"/>
	<path d="M76.358,392.959c-2.799-1.773-6.507-0.939-8.279,1.86l-8.581,13.557c-1.772,2.8-0.939,6.507,1.861,8.278
		c0.996,0.631,2.106,0.932,3.203,0.932c1.988,0,3.934-0.988,5.076-2.792l8.581-13.557C79.991,398.438,79.158,394.731,76.358,392.959
		z"/>
	<path d="M110.682,338.732c-2.8-1.775-6.506-0.939-8.279,1.86l-8.581,13.557c-1.772,2.8-0.939,6.507,1.861,8.278
		c0.996,0.631,2.106,0.932,3.203,0.932c1.988,0,3.934-0.988,5.076-2.792l8.581-13.557
		C114.315,344.21,113.482,340.503,110.682,338.732z"/>
	<path d="M93.52,365.844c-2.801-1.772-6.506-0.938-8.279,1.861l-8.581,13.558c-1.772,2.8-0.939,6.507,1.861,8.279
		c0.996,0.63,2.106,0.931,3.203,0.931c1.988,0,3.934-0.988,5.076-2.792l8.581-13.558C97.153,371.323,96.32,367.616,93.52,365.844z"
		/>
	<path d="M59.196,420.072c-2.8-1.774-6.506-0.939-8.279,1.86l-4.279,6.76c-1.772,2.8-0.939,6.507,1.861,8.278
		c0.996,0.631,2.106,0.932,3.203,0.932c1.988,0,3.934-0.988,5.076-2.792l4.279-6.76C62.828,425.551,61.995,421.844,59.196,420.072z"
		/>
</g>
<g>
</g>
<g>
</g>
<g>
</g>
<g>
</g>
<g>
</g>
<g>
</g>
<g>
</g>
<g>
</g>
<g>
</g>
<g>
</g>
<g>
</g>
<g>
</g>
<g>
</g>
<g>
</g>
<g>
</g>
</svg>
